<svg style="font-family:Arial,Helvetica,sans-serif" xmlns="http://www.w3.org/2000/svg" viewBox="0 0 1210 887" role="img" aria-label="Customer Journey Map / full hotel journey"><title>Customer Journey Map / full hotel journey</title><desc>Thesis p. 18, Figure 3 | Persona wording summarized; emotions are interpretations</desc><defs><marker id="arrow-journey" markerWidth="9" markerHeight="9" refX="8" refY="4" orient="auto"><path d="M0,0 L8,4 L0,8" fill="none" stroke="#53705c" stroke-width="1.5"/></marker></defs><rect width="1210" height="887" fill="#f7f8f3"/><text x="32" y="40" font-size="24" font-weight="600" text-anchor="start" fill="#1b3028">Customer Journey Map / full hotel journey</text><text x="32" y="70" font-size="15" font-weight="400" text-anchor="start" fill="#5e6b63">Thesis p. 18, Figure 3 | Persona wording summarized; emotions are interpretations</text><rect x="20" y="110" width="150" height="72" rx="4" fill="#dbe7bd" stroke="#b9c6b7"/><text x="36" y="140" font-size="17" font-weight="400" text-anchor="start" fill="#1b3028">Dimension</text><rect x="170" y="110" width="170" height="72" rx="4" fill="#dbe7bd" stroke="#b9c6b7"/><text x="186" y="140" font-size="17" font-weight="400" text-anchor="start" fill="#1b3028">Booking</text><rect x="340" y="110" width="170" height="72" rx="4" fill="#dbe7bd" stroke="#b9c6b7"/><text x="356" y="140" font-size="17" font-weight="400" text-anchor="start" fill="#1b3028">Check-in</text><rect x="510" y="110" width="170" height="72" rx="4" fill="#dbe7bd" stroke="#b9c6b7"/><text x="526" y="140" font-size="17" font-weight="400" text-anchor="start" fill="#1b3028">Stay</text><rect x="680" y="110" width="170" height="72" rx="4" fill="#dbe7bd" stroke="#b9c6b7"/><text x="696" y="140" font-size="17" font-weight="400" text-anchor="start" fill="#1b3028">Request</text><text x="696" y="166" font-size="17" font-weight="400" text-anchor="start" fill="#1b3028">service</text><rect x="850" y="110" width="170" height="72" rx="4" fill="#dbe7bd" stroke="#b9c6b7"/><text x="866" y="140" font-size="17" font-weight="400" text-anchor="start" fill="#1b3028">Check-out</text><rect x="1020" y="110" width="170" height="72" rx="4" fill="#dbe7bd" stroke="#b9c6b7"/><text x="1036" y="140" font-size="17" font-weight="400" text-anchor="start" fill="#1b3028">Review</text><rect x="20" y="182" width="150" height="137" rx="4" fill="#eef1e7" stroke="#b9c6b7"/><text x="36" y="212" font-size="17" font-weight="400" text-anchor="start" fill="#1b3028">Guest goal</text><rect x="170" y="182" width="170" height="137" fill="#fff" stroke="#d9dfd4"/><text x="182" y="210" font-size="16" font-weight="400" text-anchor="start" fill="#1b3028">Choose a suitable</text><text x="182" y="234" font-size="16" font-weight="400" text-anchor="start" fill="#1b3028">hotel</text><rect x="340" y="182" width="170" height="137" fill="#fff" stroke="#d9dfd4"/><text x="352" y="210" font-size="16" font-weight="400" text-anchor="start" fill="#1b3028">Access the room</text><text x="352" y="234" font-size="16" font-weight="400" text-anchor="start" fill="#1b3028">quickly</text><rect x="510" y="182" width="170" height="137" fill="#fff" stroke="#d9dfd4"/><text x="522" y="210" font-size="16" font-weight="400" text-anchor="start" fill="#1b3028">Use facilities</text><text x="522" y="234" font-size="16" font-weight="400" text-anchor="start" fill="#1b3028">comfortably</text><rect x="680" y="182" width="170" height="137" fill="#fff" stroke="#d9dfd4"/><text x="692" y="210" font-size="16" font-weight="400" text-anchor="start" fill="#1b3028">Get a clear,</text><text x="692" y="234" font-size="16" font-weight="400" text-anchor="start" fill="#1b3028">timely service</text><rect x="850" y="182" width="170" height="137" fill="#fff" stroke="#d9dfd4"/><text x="862" y="210" font-size="16" font-weight="400" text-anchor="start" fill="#1b3028">Leave without</text><text x="862" y="234" font-size="16" font-weight="400" text-anchor="start" fill="#1b3028">friction</text><rect x="1020" y="182" width="170" height="137" fill="#fff" stroke="#d9dfd4"/><text x="1032" y="210" font-size="16" font-weight="400" text-anchor="start" fill="#1b3028">Share feedback</text><rect x="20" y="319" width="150" height="137" rx="4" fill="#eef1e7" stroke="#b9c6b7"/><text x="36" y="349" font-size="17" font-weight="400" text-anchor="start" fill="#1b3028">Touchpoint</text><rect x="170" y="319" width="170" height="137" fill="#fff" stroke="#d9dfd4"/><text x="182" y="347" font-size="16" font-weight="400" text-anchor="start" fill="#1b3028">Booking site</text><rect x="340" y="319" width="170" height="137" fill="#fff" stroke="#d9dfd4"/><text x="352" y="347" font-size="16" font-weight="400" text-anchor="start" fill="#1b3028">Reception</text><rect x="510" y="319" width="170" height="137" fill="#fff" stroke="#d9dfd4"/><text x="522" y="347" font-size="16" font-weight="400" text-anchor="start" fill="#1b3028">Room, Wi-Fi,</text><text x="522" y="371" font-size="16" font-weight="400" text-anchor="start" fill="#1b3028">restaurant</text><rect x="680" y="319" width="170" height="137" fill="#fff" stroke="#d9dfd4"/><text x="692" y="347" font-size="16" font-weight="400" text-anchor="start" fill="#1b3028">Room phone /</text><text x="692" y="371" font-size="16" font-weight="400" text-anchor="start" fill="#1b3028">reception</text><rect x="850" y="319" width="170" height="137" fill="#fff" stroke="#d9dfd4"/><text x="862" y="347" font-size="16" font-weight="400" text-anchor="start" fill="#1b3028">Reception / bill</text><rect x="1020" y="319" width="170" height="137" fill="#fff" stroke="#d9dfd4"/><text x="1032" y="347" font-size="16" font-weight="400" text-anchor="start" fill="#1b3028">Review platform</text><rect x="20" y="456" width="150" height="137" rx="4" fill="#eef1e7" stroke="#b9c6b7"/><text x="36" y="486" font-size="17" font-weight="400" text-anchor="start" fill="#1b3028">Friction</text><rect x="170" y="456" width="170" height="137" fill="#fff" stroke="#d9dfd4"/><text x="182" y="484" font-size="16" font-weight="400" text-anchor="start" fill="#1b3028">Navigation and</text><text x="182" y="508" font-size="16" font-weight="400" text-anchor="start" fill="#1b3028">missing</text><text x="182" y="532" font-size="16" font-weight="400" text-anchor="start" fill="#1b3028">information</text><rect x="340" y="456" width="170" height="137" fill="#fff" stroke="#d9dfd4"/><text x="352" y="484" font-size="16" font-weight="400" text-anchor="start" fill="#1b3028">Waiting and</text><text x="352" y="508" font-size="16" font-weight="400" text-anchor="start" fill="#1b3028">inconsistent</text><text x="352" y="532" font-size="16" font-weight="400" text-anchor="start" fill="#1b3028">information</text><rect x="510" y="456" width="170" height="137" fill="#fff" stroke="#d9dfd4"/><text x="522" y="484" font-size="16" font-weight="400" text-anchor="start" fill="#1b3028">Wi-Fi / service</text><text x="522" y="508" font-size="16" font-weight="400" text-anchor="start" fill="#1b3028">quality</text><rect x="680" y="456" width="170" height="137" fill="#fff" stroke="#d9dfd4"/><text x="692" y="484" font-size="16" font-weight="400" text-anchor="start" fill="#1b3028">Delays and lost</text><text x="692" y="508" font-size="16" font-weight="400" text-anchor="start" fill="#1b3028">request details</text><rect x="850" y="456" width="170" height="137" fill="#fff" stroke="#d9dfd4"/><text x="862" y="484" font-size="16" font-weight="400" text-anchor="start" fill="#1b3028">Slow answers and</text><text x="862" y="508" font-size="16" font-weight="400" text-anchor="start" fill="#1b3028">billing</text><text x="862" y="532" font-size="16" font-weight="400" text-anchor="start" fill="#1b3028">information</text><rect x="1020" y="456" width="170" height="137" fill="#fff" stroke="#d9dfd4"/><text x="1032" y="484" font-size="16" font-weight="400" text-anchor="start" fill="#1b3028">Weak link to</text><text x="1032" y="508" font-size="16" font-weight="400" text-anchor="start" fill="#1b3028">improvement</text><rect x="20" y="593" width="150" height="137" rx="4" fill="#eef1e7" stroke="#b9c6b7"/><text x="36" y="623" font-size="17" font-weight="400" text-anchor="start" fill="#1b3028">Experience</text><rect x="170" y="593" width="170" height="137" fill="#fff" stroke="#d9dfd4"/><text x="182" y="621" font-size="16" font-weight="400" text-anchor="start" fill="#1b3028">Uncertainty /</text><text x="182" y="645" font-size="16" font-weight="400" text-anchor="start" fill="#1b3028">relief</text><rect x="340" y="593" width="170" height="137" fill="#fff" stroke="#d9dfd4"/><text x="352" y="621" font-size="16" font-weight="400" text-anchor="start" fill="#1b3028">Impatience /</text><text x="352" y="645" font-size="16" font-weight="400" text-anchor="start" fill="#1b3028">irritation</text><rect x="510" y="593" width="170" height="137" fill="#fff" stroke="#d9dfd4"/><text x="522" y="621" font-size="16" font-weight="400" text-anchor="start" fill="#1b3028">Comfort or</text><text x="522" y="645" font-size="16" font-weight="400" text-anchor="start" fill="#1b3028">frustration</text><rect x="680" y="593" width="170" height="137" fill="#fff" stroke="#d9dfd4"/><text x="692" y="621" font-size="16" font-weight="400" text-anchor="start" fill="#1b3028">Expectations /</text><text x="692" y="645" font-size="16" font-weight="400" text-anchor="start" fill="#1b3028">disappointment</text><rect x="850" y="593" width="170" height="137" fill="#fff" stroke="#d9dfd4"/><text x="862" y="621" font-size="16" font-weight="400" text-anchor="start" fill="#1b3028">Tension about</text><text x="862" y="645" font-size="16" font-weight="400" text-anchor="start" fill="#1b3028">delays</text><rect x="1020" y="593" width="170" height="137" fill="#fff" stroke="#d9dfd4"/><text x="1032" y="621" font-size="16" font-weight="400" text-anchor="start" fill="#1b3028">Reflection /</text><text x="1032" y="645" font-size="16" font-weight="400" text-anchor="start" fill="#1b3028">disappointment</text><rect x="20" y="730" width="150" height="137" rx="4" fill="#eef1e7" stroke="#b9c6b7"/><text x="36" y="760" font-size="17" font-weight="400" text-anchor="start" fill="#1b3028">Product</text><text x="36" y="786" font-size="17" font-weight="400" text-anchor="start" fill="#1b3028">scope</text><rect x="170" y="730" width="170" height="137" fill="#fff" stroke="#d9dfd4"/><text x="182" y="758" font-size="16" font-weight="400" text-anchor="start" fill="#1b3028">Outside MVP</text><rect x="340" y="730" width="170" height="137" fill="#fff" stroke="#d9dfd4"/><text x="352" y="758" font-size="16" font-weight="400" text-anchor="start" fill="#1b3028">Self-reported</text><text x="352" y="782" font-size="16" font-weight="400" text-anchor="start" fill="#1b3028">room only</text><rect x="510" y="730" width="170" height="137" fill="#fff" stroke="#d9dfd4"/><text x="522" y="758" font-size="16" font-weight="400" text-anchor="start" fill="#1b3028">Capture service</text><text x="522" y="782" font-size="16" font-weight="400" text-anchor="start" fill="#1b3028">issues</text><rect x="680" y="730" width="170" height="137" fill="#fff" stroke="#d9dfd4"/><text x="692" y="758" font-size="16" font-weight="400" text-anchor="start" fill="#1b3028">Core intake and</text><text x="692" y="782" font-size="16" font-weight="400" text-anchor="start" fill="#1b3028">staff workflow</text><rect x="850" y="730" width="170" height="137" fill="#fff" stroke="#d9dfd4"/><text x="862" y="758" font-size="16" font-weight="400" text-anchor="start" fill="#1b3028">Outside MVP</text><rect x="1020" y="730" width="170" height="137" fill="#fff" stroke="#d9dfd4"/><text x="1032" y="758" font-size="16" font-weight="400" text-anchor="start" fill="#1b3028">Per-request CSAT</text><text x="1032" y="782" font-size="16" font-weight="400" text-anchor="start" fill="#1b3028">only</text></svg>
